<?xml version="1.0" encoding="UTF-8"?>
<svg id="Layer_1" xmlns="http://www.w3.org/2000/svg" version="1.1" viewBox="0 0 1278.31 179.86">
  <!-- Generator: Adobe Illustrator 29.7.0, SVG Export Plug-In . SVG Version: 2.1.1 Build 138)  -->
  <defs>
    <style>
      .st0 {
        fill: #9fbaf1;
      }
    </style>
  </defs>
  <g>
    <g>
      <path class="st0" d="M194.16,59.69l-3.57-3.42-4.09-2.79-4.59-1.87-4.45-2.04-4.93-2.23-5.26-1.28-5.37-.83-5.43.26-5.37.26-5.37.4-5.23,1.31-4.99,1.99-4.56,1.9-4.63,1.9-3.9,3.12-3.87,3.12-3.52,3.35-3.08,3.77-1.89,4.52-2.6,4.09-1.31,4.89-1.36,4.84-1.3,4.93.47,5.09-.14,5.06.91,4.97.78,5.03,2.37,4.51,1.44,4.69,3.09,3.79,2.94,3.83,3.15,3.68,3.89,3.11,4.35,2.41,4.18,2.65,4.38,2.41,5.29,1.12,5.12,1.81,5.4.3,5.38.53,5.39-.63,5.35-.64,5.26-1.18,5.24-1.35,4.49-2.09,4.08-2.79,4.01-2.81,3.59-3.31,3.88-2.96,2.78-3.97,2.58-4.08,2.27-4.27,1.64-4.81,1.39-4.88.54-5.05.55-5.06-.36-5.06-.8-5-1.52-4.82-1.94-4.63-1.81-4.47-2.11-4.41-3.76-3.19-3.05-3.73ZM180.3,106.18l-2.53,4.46-3.1,4.05-3.43,3.66-4.49,2.28-5.15.88-5.12.32-5.06-.62-5.05-.98-4.39-2.28-3.6-3.37-3.25-3.92-2.62-4.44-1.46-5.54.11-5.7.09-5.7,1.64-5.46,2.47-4.42,3.16-3.89,3.26-3.8,4.63-1.89,4.86-1.92,5.22-.32,5.09,1.05,5.16.77,4.22,2.66,3.92,3.04,2.76,4.29,2.87,4.26.73,5.71,1.03,5.62-.51,5.68-1.46,5.51Z"/>
      <path class="st0" d="M282.86,45.38l-5.47-1.82-5.24-2.19-5.45-1.67-5.61-1.12h-5.73s-4.99-.28-4.99-.28l-4.95-.84-5.02.17-4.97-.55-5-.07-4.93-1.16-5.03.41-4.95-1.06-5.12.04.04,5.4-.97,5.23.19,5.3-.68,5.25-.39,5.27.03,5.3-.92,5.24.36,5.32-.36,5.27-.72,5.25-.4,5.27.34,5.32-.63,5.26.07,5.3-.98,5.24-.45,5.27-.23,5.29-.15,5.33h5.05s4.98.47,4.98.47l4.96.79,5.03-.41,4.99.2,4.96.78,5.02-.15,4.96.87,5.01-.04,5.7.62h5.75s5.56-1.56,5.56-1.56l5.55-1.26,5.43-1.72,4.67-1.95,4.12-2.94,3.88-3.19,4.13-3,3.22-3.95,2.57-4.67,1.84-4.96,2.05-4.88,1.23-5.17-.23-5.34.81-5.28-.95-5.24-.98-5.17-1.17-5.17-2.13-4.88-2.51-4.42-3.83-3.4-3.25-3.86-3.94-3.16-4.15-2.91ZM273.79,100.84l-2.14,3.94-3.56,2.71-3.98,1.94-4.68,1.36-4.78,1.22-4.94.04-5.62-.88-5.68.13-5.76-.65.03-5.36,1.17-5.15-.39-5.25,1.07-5.16.02-5.23-.09-5.23.97-5.17-.2-5.24.68-5.19.29-5.02,5.48.05,5.62.94,5.69-.33,4.86.63,4.6,1.65,4.35,2.1,3.95,2.02,2.8,3.43,2.68,3.55,1.11,4.84.66,4.81.12,4.86-.46,4.84-1.07,4.79-2.79,4.03Z"/>
    </g>
    <g>
      <polygon class="st0" points="450.45 36.8 449.79 42.26 449.5 47.65 448.47 52.92 447.99 58.28 445.86 63.38 445.8 68.8 445.14 74.13 444.88 79.53 443.12 84.69 443.09 90.12 441.18 95.26 440.99 101.36 438.1 96.06 435.63 91.31 432.98 86.66 431.67 81.33 429.45 76.46 427.13 71.64 424.32 67.06 422.31 62.08 419.28 57.61 416.14 53.2 414.8 47.87 411.84 43.58 407.07 43.8 402.27 45.07 397.29 45.25 392.35 45.74 387.2 46.93 386.6 52.53 386.54 57.91 384.82 63.04 383.99 68.3 383.45 73.61 383.22 78.97 381.49 84.09 380.61 89.35 379.51 94.57 378.73 99.84 377.98 105.13 377.48 110.07 375.08 105.76 372.99 100.88 369.7 96.6 367.63 91.71 366.23 86.47 362.9 82.21 361.31 77.07 358.35 72.62 355.5 68.12 353.7 63.08 351.33 58.33 348.65 54.03 343.32 54.24 337.79 54.81 332.51 56.84 327.03 57.72 320.83 57.77 324.11 62.69 325.77 67.76 328.55 72.24 331.61 76.58 333 81.79 336.14 86.09 338.38 90.86 340.66 95.6 342.85 100.39 345.72 104.83 348.16 109.49 349.92 114.5 352.6 119.05 354.86 123.8 358.11 128.05 360.23 132.88 363.06 137.34 364.54 142.51 367.02 147.65 372.95 145.79 378.63 144.86 384.44 144.7 389.98 142.83 396.15 142.79 396.58 137.34 397.1 132.28 398.3 127.32 399.24 122.33 400.06 117.31 400.83 112.29 401.41 107.24 401.55 102.12 402.63 97.15 403.56 92.15 404.98 87.23 405.1 81.94 406.79 86.93 409.01 91.48 412.36 95.45 413.64 100.47 417.12 104.38 418.65 109.28 420.98 113.77 423.87 117.98 425.25 122.95 427.86 127.3 430.78 131.5 432.48 136.32 438.29 136.14 443.76 133.88 449.6 133.89 455.2 132.44 460.42 131.14 461.07 126.36 461.96 121.18 463.72 116.12 464.1 110.86 464.98 105.67 466.09 100.51 466.62 95.27 466.63 89.95 467.59 84.77 468.82 79.64 469.15 74.37 470.45 69.24 470.6 63.94 471.37 58.73 473.3 53.7 473.67 48.44 473.84 43.14 475.23 38.02 475.48 33.27 471.01 34.36 465.86 34.65 460.7 34.95 455.59 35.47 450.45 36.8"/>
      <path class="st0" d="M551.75,66.51l-3.62-3.39-4.07-2.85-4.27-2.57-4.78-1.45-5.02-2.03-5.39-.59-5.32-.75-5.38-.29-5.39-.07-5.38.52-5.3,1.11-4.99,2.09-4.71,1.65-4.28,2.58-4.01,2.94-3.97,3.02-3.4,3.47-3.07,3.78-2.11,4.4-2.45,4.18-1.4,4.87-1.98,4.73-.53,5.08-.02,5.08.49,5.04,1.01,4.94,1.3,4.83,1.58,4.76,1.53,4.64,2.67,4.07,3.57,3.33,3.1,3.69,3.42,3.66,4.22,2.69,4.47,2.21,4.47,2.21,5.25,1.25,5.22,1.23,5.31.93,5.39-.05,5.36-.57,5.37-.31,5.15-1.57,5.41-.78,4.42-2.26,4.44-2.19,4.07-2.83,3.41-3.6,3.45-3.37,2.81-3.91,2.41-4.15,2.23-4.25,2.13-4.6.8-5.01.79-4.97,1.1-5.04-1.21-5.01.09-5.12-1.9-4.74-1.61-4.77-1.75-4.54-2.59-4.12-2.94-3.88-3.57-3.31ZM537.5,113.09l-2.46,4.45-3.12,3.97-3.82,2.99-4.06,2.8-5.05,1.07-5.1,1.02-5.18-.56-4.96-1.53-4.22-2.56-3.64-3.26-3.06-4.01-2.68-4.35-1.16-5.54-.65-5.61.3-5.7,1.77-5.41,2.31-4.48,3.16-3.9,3.4-3.61,4.53-2.03,4.87-1.83,5.2.31,5.1.27,4.98,1.23,4.49,2.09,4.03,2.99,3.26,4.04,2.17,4.7.84,5.69.53,5.64.28,5.74-2.06,5.36Z"/>
      <path class="st0" d="M647.83,92.9l2.23-4.41,2.31-4.34.71-4.87,1.3-4.76-.11-4.87-.88-4.77-.96-4.73-2.11-4.33-2.56-4.05-3.12-3.65-4.22-3.77-5.05-2.56-4.98-2.8-5.52-1.44-5.57-1.25-5.73.1-5.29-.57-5.29-.56-5.32-.13-5.3-.43-5.25-1.07-5.37.5-5.27-.8-5.44-.57.13,5.45-.72,5.24-.49,5.26-.79,5.24.13,5.31-.9,5.23-.38,5.27-.36,5.27-.27,5.28-.14,5.29-.28,5.28-.52,5.26-.9,5.23.22,5.32-.96,5.23.47,5.34-1.19,5.21-.02,5.24,5.33.03,5.34.77,5.34.74,5.37.35,5.44.29.18-5.13.83-5,.24-5.05.43-5.04-.05-5.29,5.1.36,4.86.69,4.63.68,3.21,3.78,1.94,4.77,2.78,4.28,2.26,4.58,2.45,4.48,2.7,4.57,5.98-.28,5.69,1.16,5.76.19,5.76.23,6.09.79-3.02-4.72-2.85-4.35-1.91-4.89-3.32-4.07-2.32-4.66-2.83-4.36-2.65-4.6,5.54-2.86,4.71-3.55,4.76-3.71ZM623.19,62.17l3.25,4.56.14,5.68-.8,5.63-4.02,3.95-3.79,2.13-4.32,1.16-4.48-.25-4.98-.13-4.97-.38-5.11-.52.6-5.68.09-5.58,1.11-5.5.29-5.57.49-5.24,4.67-.22,4.96.54,4.96.54,4.47.36,4.25,1.46,3.2,3.06Z"/>
      <polygon class="st0" points="745.63 47.43 740.73 47.72 735.8 47.12 730.86 47.02 725.93 47.51 720.99 47.45 715.96 47.23 712.12 51.13 708.52 55.16 704.74 59.02 700.97 62.89 697.62 67.14 693.94 71.1 690.23 75.02 686.71 79.12 683.15 83.21 679.13 87.27 679.65 81.99 678.99 77.05 679.49 72.12 679.39 67.18 679.24 62.24 679.24 57.3 678.82 52.36 679.14 47.5 673.89 47.37 668.57 47.47 663.24 47.4 657.91 47.5 652.76 47.59 652.36 52.69 652.18 57.98 652.62 63.26 652.29 68.54 652.57 73.83 652.82 79.11 652.61 84.4 652.24 89.68 652.19 94.96 652.16 100.25 652.42 105.53 652.48 110.81 652.95 116.1 652.17 121.38 652.51 126.67 652.64 131.96 652.91 137.25 652.43 142.69 657.91 143 663.24 142.16 668.56 142.43 673.89 142.61 679.23 142.55 679.1 137.77 679.51 133.01 678.91 128.24 679.62 123.47 678.89 118.58 682.41 115.01 686.09 111.77 689.2 108.11 692.36 112.52 695.7 116.88 699.39 120.97 702.71 125.35 706.2 129.6 709.83 133.74 713.22 138.07 716.4 142.63 721.66 142.06 726.87 142.09 732.07 142.26 737.28 142.62 742.49 142.44 747.33 142.34 744.82 138.26 741.68 134.17 738 130.51 735.08 126.26 731.98 122.15 728.66 118.21 725.34 114.26 722.48 109.96 719.73 105.58 716.61 101.48 713.21 97.59 710.11 93.47 706.45 89.47 710.44 85.74 714.15 82.09 717.43 78.03 720.8 74.06 724.62 70.5 728.23 66.76 731.58 62.76 735.23 59.05 738.77 55.23 742.13 51.24 745.63 47.43"/>
    </g>
    <g>
      <path class="st0" d="M852.13,87.04l1.31-4.65,1.27-4.68-.11-4.86.08-4.92-1.28-4.7-2.13-4.35-1.61-4.6-3.19-3.66-3.48-3.32-4.02-2.62-5.02-2.52-5.29-2.09-5.64-.74-5.68-.38-5.67.51-5.69.4-5.23.92-5.24.88-5.14,1.52-5.38.02-5.2,1.09-5.24.93-5.23.98-5.19.96.57,5.22,1.41,5.12.44,5.28.86,5.21.97,5.2,1.26,5.15-.04,5.36,1.23,5.15,1.06,5.18.74,5.23,1.12,5.17.53,5.27,1.13,5.17.34,5.3,1.36,5.13.84,5.22.9,5.21.89,4.88,5-.73,5.39-.4,5.28-1.03,5.22-1.44,5.12-.58-.8-4.74-.61-5.02-.52-5.04-1.3-4.91-.69-5.1,4.95-.58,4.82-.84,4.89-1.08,3.25,4.07,3.76,3.46,3.37,3.83,3.6,3.61,3.34,3.86,3.8,3.23,5.61-.58,5.75-.55,5.68-.96,5.57-1.66,5.36-.82-3.14-3.64-3.64-3.7-3.75-3.59-3.56-3.77-3.23-4.1-3.96-3.4-3.09-4.01,3.94-3.91,4.07-4.3,2.89-5.17ZM821.9,62.7l4.26,4.02,1.46,5.65.2,5.72-2.93,4.83-3.19,3-3.89,2.31-4.53.33-4.85,1.18-4.91.83-5.17.89-.94-5.73-.42-5.58-1.03-5.48-.75-5.53-1.11-5.43,4.94-.45,4.91-.87,4.92-.83,4.38-1.09,4.34,1.23,4.32.99Z"/>
      <path class="st0" d="M947.33,66.58l-3.93-2.97-3.81-3.15-4.31-2.43-4.49-2.11-5.32-1.06-5.19-1.4-5.33-.79-5.39.32-5.37-.21-5.4.26-5.21,1.43-5.22,1.39-4.38,2.42-4.31,2.43-4.46,2.31-3.47,3.61-3.47,3.37-3.19,3.67-2.67,4.08-1.79,4.53-1.32,4.88-1.67,4.77-.22,5.05-.91,5.01.56,5.04.28,5.08,1.37,4.9,1.82,4.74,2.58,4.1,2.27,4.26,2.96,3.83,3.27,3.57,3.74,3.3,4.35,2.44,4.38,2.29,4.52,1.99,5.07,1.71,5.1,1.87,5.44-.08,5.35.36,5.35-.63,5.32-.54,5.44-.37,5.05-1.98,4.55-1.91,4.24-2.52,3.82-3.1,4.03-2.83,3.18-3.64,3.28-3.57,2.74-4.02,1.9-4.48,2.18-4.64,1.05-5.01.88-5.03.39-5.11-1.06-5.03-.45-5.03-1.42-4.85-1.76-4.72-1.58-4.63-3.36-3.6-2.37-4.28-3.6-3.26ZM933.25,113.13l-2.03,4.75-3.49,3.8-3.78,3.14-4.39,2.18-4.8,2.05-5.22.2-5.14-.59-5.16-.95-4.22-2.71-3.5-3.47-3.34-3.83-2.02-4.68-1.97-5.33-.52-5.69,1.07-5.63,1.03-5.6,2.45-4.47,3.3-3.83,3.77-3.07,4.13-2.67,4.88-1.9h5.24s5.24-.03,5.24-.03l4.81,2.1,4.52,2.02,3.49,3.51,3.21,3.89,2.33,4.5,1.98,5.41.1,5.76-.5,5.66-1.49,5.48Z"/>
      <path class="st0" d="M1045.81,42.7l-3.25-3.79-4.52-2.13-4.22-2.49-4.24-2.65-5.31-1.13-5.3-.88-5.31-.67-5.36-.31-5.35.24-5.3.68-5.44.32-5.09,1.85-4.58,1.98-4.26,2.59-3.95,3.02-3.75,3.23-3.61,3.24-3.24,3.65-2.37,4.26-1.84,4.48-1.41,4.83-1.61,4.77-.6,5.01-.71,5.03.75,5.03.22,5.07,1.57,4.82,1.25,4.95,2.93,3.94,2.61,4.01,2.45,4.2,3.57,3.28,3.82,3.15,4.12,2.72,3.99,3.06,4.8,1.44,5.05,1.85,5.22,1.35,5.38.32,5.36-.05,5.41.4,5.31-1.03,5.3-.98,4.94-2.16,4.51-1.89,4.3-2.33,4.19-2.57,3.68-3.26,3.43-3.39,3.42-3.48,2.44-4.22,1.74-4.54,2.2-4.6,1.17-4.96.4-5.07.1-5.06.41-5.09-.93-5-1.42-4.86-1.31-4.94-2.16-4.37-2.84-3.96-3.35-3.51-3.41-3.38ZM1032.37,89.1l-2.97,4.24-2.5,4.55-3.93,3.14-4.7,1.67-4.79,1.97-5.18.72-5.23-.48-5-1.57-4.44-2.32-3.85-3.21-2.47-4.55-2.43-4.43-1.49-5.41-.67-5.61.21-5.73,1.49-5.55,2.62-4.39,3.33-3.78,3.55-3.35,4.2-2.63,4.93-1.82,5.25-.07,5.2.35,4.83,1.9,4.62,1.86,3.48,3.56,3.4,3.8,1.79,4.78,2.35,5.28.53,5.77-1.13,5.64-.99,5.65Z"/>
      <polygon class="st0" points="1161.04 147.04 1161.85 141.88 1163.22 136.75 1163.14 131.39 1164.68 126.28 1165.59 121.08 1166.26 115.83 1166.85 110.58 1167.39 105.32 1168.9 100.2 1168.56 94.8 1169.38 89.58 1171.22 84.52 1171.32 79.19 1172.92 74.09 1173.55 68.84 1173.85 63.54 1174.53 58.29 1175.52 53.14 1170.2 51.66 1164.54 51.99 1159.12 50.83 1153.69 49.64 1150.54 53.96 1146.6 57.6 1143.27 61.75 1139.85 65.83 1137.21 70.55 1133.69 74.54 1130.18 78.55 1126.48 82.4 1122.96 86.4 1119.47 90.42 1116.08 94.53 1112.96 99.19 1110.39 94.18 1109.13 88.9 1106.52 84.18 1105.14 78.95 1103.25 73.93 1100.36 69.32 1098.7 64.21 1097.05 59.09 1094.73 54.25 1093.08 49.13 1090.46 44.4 1088.74 39.05 1083.07 38.03 1077.57 37.37 1071.96 37.38 1066.45 35.8 1065.35 41.14 1064.41 46.34 1064.5 51.7 1063.15 56.84 1062.36 62.06 1061.95 67.35 1061.43 72.61 1060.63 77.84 1058.99 82.93 1058.32 88.17 1057.81 93.44 1057.19 98.69 1055.58 103.79 1055.31 109.09 1054.05 114.24 1053.79 119.55 1052.74 124.74 1052.21 129.69 1056.78 130.4 1061.66 131.34 1066.58 132.09 1071.38 133.62 1076.75 134.27 1077.54 128.48 1077.63 122.98 1078.84 117.65 1080.31 112.37 1080.48 106.88 1081.28 101.48 1082.46 96.15 1083.19 90.74 1084.03 85.52 1085.89 90.16 1087.55 95.06 1090.2 99.56 1091.93 104.44 1093.74 109.29 1096.31 113.82 1098.03 118.71 1100.17 123.42 1101.87 128.32 1107.82 128.96 1113.77 130.44 1116.85 125.91 1120.82 122.29 1124.03 118.05 1127.59 114.1 1130.81 109.86 1133.86 105.5 1137.76 101.82 1140.93 97.53 1144.27 93.32 1143.18 98.32 1142.86 103.37 1141.53 108.28 1141.76 113.41 1140.95 118.39 1139.44 123.27 1139.04 128.31 1137.86 133.24 1136.86 138.2 1137 143.03 1141.5 144.3 1146.35 145.31 1151.38 145.13 1156.18 146.52 1161.04 147.04"/>
    </g>
  </g>
  <g>
    <path class="st0" d="M142.75,93.06c-1.58,0-2.88-1.27-2.91-2.86l-.05-2.42c-.03-1.61,1.25-2.94,2.86-2.97,1.63-.04,2.94,1.25,2.97,2.86l.05,2.42c.03,1.61-1.25,2.94-2.86,2.97-.02,0-.04,0-.06,0Z"/>
    <path class="st0" d="M154.61,88.22c-1.58,0-2.88-1.27-2.91-2.86l-.05-2.42c-.03-1.61,1.25-2.94,2.86-2.97,1.61-.02,2.94,1.25,2.97,2.86l.05,2.42c.03,1.61-1.25,2.94-2.86,2.97-.02,0-.04,0-.06,0Z"/>
    <path class="st0" d="M149.02,101.25h-.07c-.81,0-1.45-.66-1.45-1.47,0-.8.66-1.45,1.46-1.45h.06c1.67,0,3.36-.5,4.75-1.41,1.41-.92,2.56-2.28,3.23-3.83.32-.74,1.18-1.08,1.92-.76.74.32,1.08,1.18.76,1.92-.89,2.07-2.43,3.88-4.31,5.11-1.87,1.22-4.12,1.89-6.35,1.89Z"/>
  </g>
  <g>
    <path class="st0" d="M516.72,97.89c-1.59,0-2.88-1.27-2.91-2.86l-.05-2.42c-.03-1.61,1.25-2.94,2.86-2.97.02,0,.04,0,.06,0,1.59,0,2.88,1.27,2.91,2.86l.05,2.42c.03,1.61-1.25,2.94-2.86,2.97-.02,0-.04,0-.06,0Z"/>
    <path class="st0" d="M529.58,100.31c-1.58,0-2.88-1.27-2.91-2.86l-.05-2.42c-.03-1.61,1.25-2.94,2.86-2.97.02,0,.04,0,.06,0,1.58,0,2.88,1.27,2.91,2.86l.05,2.42c.03,1.61-1.25,2.94-2.86,2.97-.02,0-.04,0-.06,0Z"/>
    <path class="st0" d="M521.1,112.88c-1.17,0-2.35-.44-3.24-1.26-1.25-1.15-1.85-2.94-1.57-4.67h0c.35-2.16,1.97-4.05,3.94-4.59,1.69-.46,3.34.1,4.55,1.55,1.08,1.3,1.46,3.15,1,4.96-.42,1.68-1.52,3.05-2.93,3.65-.56.24-1.15.35-1.75.35ZM519.17,107.42h0c-.12.77.14,1.58.66,2.06.5.46,1.29.62,1.88.37.57-.24,1.05-.89,1.25-1.68.23-.89.07-1.81-.41-2.38-.47-.56-.97-.76-1.54-.61-.88.24-1.67,1.2-1.83,2.24Z"/>
  </g>
  <g>
    <path class="st0" d="M927.1,100.82c-.27,0-.54-.07-.78-.22-2.29-1.44-4.2-3.45-5.53-5.8-.4-.7-.15-1.59.54-1.98l4.85-2.77c.7-.4,1.59-.16,1.99.54.4.7.16,1.59-.54,1.99l-3.52,2.01c1.01,1.41,2.3,2.62,3.76,3.54.68.43.88,1.33.45,2.01-.28.44-.75.68-1.23.68Z"/>
    <path class="st0" d="M908.84,94.59c-.9,0-1.8-.07-2.69-.22-.79-.13-1.33-.88-1.2-1.68.13-.79.88-1.33,1.68-1.2,1.72.29,3.48.23,5.17-.14l-1.29-3.85c-.26-.76.16-1.59.92-1.85.76-.26,1.59.15,1.85.92l1.78,5.3c.26.76-.15,1.59-.91,1.84-1.7.58-3.5.87-5.29.87Z"/>
    <path class="st0" d="M913.96,111.08c-.37,0-.73-.06-1.09-.19-2.31-.83-2.8-3.99-2.85-4.35-.3-2.24-.1-4.56.57-6.72.23-.74,1-1.16,1.74-.98.21.05,5.24,1.3,7.42,2,.72.23,1.15.98.98,1.71-.5,2.17-1.11,4.87-3.04,6.67-1.32,1.24-2.57,1.86-3.74,1.86ZM913.04,102.02c-.27,1.36-.31,2.76-.13,4.13.11.79.55,1.85.94,1.99.2.07.81-.08,1.85-1.05.98-.92,1.49-2.38,1.87-3.87-1.44-.41-3.29-.89-4.54-1.21Z"/>
  </g>
  <g>
    <path class="st0" d="M992.95,76.6c-1.58,0-2.88-1.27-2.91-2.86l-.05-2.42c-.03-1.61,1.25-2.94,2.86-2.97,1.59-.02,2.94,1.25,2.97,2.86l.05,2.42c.03,1.61-1.25,2.94-2.86,2.97-.02,0-.04,0-.06,0Z"/>
    <path class="st0" d="M1004.81,71.77c-1.58,0-2.88-1.27-2.91-2.86l-.05-2.4c-.03-1.61,1.25-2.95,2.86-2.98,1.64-.04,2.94,1.24,2.97,2.85l.05,2.42c.03,1.61-1.25,2.94-2.86,2.97-.02,0-.04,0-.06,0Z"/>
    <path class="st0" d="M1002.74,88.5c-1.18,0-2.43-.63-3.75-1.89-1.91-1.82-2.5-4.53-2.98-6.7-.16-.74.27-1.48,1-1.7,2.02-.62,6.67-3.02,6.71-3.04.39-.2.84-.22,1.24-.05.4.17.7.51.83.92.56,1.85,1.26,5.49.91,7.97-.05.36-.57,3.52-2.89,4.32-.34.12-.7.18-1.05.18ZM999.15,80.53c.36,1.48.87,3.04,1.86,3.97,1.04.99,1.65,1.14,1.84,1.07.39-.14.85-1.2.96-1.98.18-1.27-.03-3.26-.39-5.01-1.22.6-2.9,1.4-4.28,1.95Z"/>
  </g>
</svg>